<svg width="16" height="15" viewBox="0 0 16 15" fill="none" xmlns="http://www.w3.org/2000/svg">
<path d="M8.17287 15C5.10774 14.8974 2.82793 13.7552 1.22398 11.4664C1.16687 11.386 1.13355 11.2656 1.14783 11.1719C1.16687 11.0202 1.33345 10.9667 1.54763 11.0023C1.97598 11.0737 2.39958 11.1719 2.82793 11.2031C4.96496 11.3548 6.84972 10.7614 8.42988 9.40507C10.1005 7.96842 10.8953 6.15699 10.843 4.03324C10.8144 2.88659 10.4765 1.8158 9.87201 0.820847C9.84822 0.780692 9.82442 0.744999 9.80062 0.704844C9.71971 0.588841 9.69115 0.468376 9.78634 0.347912C9.88629 0.227447 10.0196 0.23637 10.1623 0.272064C11.2475 0.562071 12.228 1.03501 13.0942 1.71318C14.7505 3.01598 15.7072 4.68464 15.9499 6.69685C16.4116 10.4803 13.6463 14.0541 9.66259 14.8171C9.12001 14.9152 8.56791 14.9509 8.17287 15Z" fill="#FCC730"/>
<path d="M3.6654 5.57262C3.6654 5.75555 3.67492 5.94294 3.66064 6.12587C3.65588 6.22849 3.69396 6.28649 3.77963 6.34449C4.09376 6.54972 4.39837 6.75942 4.70773 6.96912C4.8172 7.04497 4.91239 7.12974 4.8886 7.27251C4.8648 7.41975 4.74581 7.47775 4.60778 7.5179C4.2413 7.61606 3.87958 7.72314 3.5131 7.8213C3.40839 7.84807 3.35603 7.89714 3.32272 7.99084C3.21325 8.32546 3.09426 8.66009 2.98479 8.99471C2.94196 9.11964 2.89436 9.2401 2.73254 9.26687C2.55168 9.2981 2.46124 9.19102 2.37557 9.07056C2.17091 8.78501 1.95198 8.50393 1.74732 8.21392C1.68545 8.12469 1.61405 8.09346 1.49982 8.09346C1.11906 8.10238 0.738302 8.09792 0.357541 8.09792C0.219515 8.09792 0.0957679 8.07561 0.0291347 7.94622C-0.0374984 7.81683 0.019616 7.70975 0.105287 7.60714C0.343263 7.32159 0.581238 7.03604 0.804935 6.74158C0.84777 6.68804 0.866809 6.58542 0.843012 6.51849C0.733543 6.17048 0.609796 5.8314 0.486049 5.48785C0.443213 5.36292 0.424175 5.24692 0.533644 5.1443C0.643113 5.04615 0.766859 5.05953 0.900125 5.10415C1.25709 5.22461 1.61881 5.33615 1.97578 5.46108C2.09 5.50124 2.17092 5.48785 2.26611 5.41646C2.5612 5.20677 2.86104 5.01045 3.15613 4.80076C3.27036 4.72045 3.38935 4.65798 3.53214 4.72491C3.6892 4.79629 3.69396 4.93014 3.6892 5.06846C3.68444 5.23354 3.6892 5.40308 3.6892 5.56816C3.67968 5.57262 3.67016 5.57262 3.6654 5.57262Z" fill="#FCC730"/>
<path d="M7.43441 1.48133C7.41061 1.51256 7.3773 1.59287 7.32018 1.64641C7.12504 1.8338 6.92514 2.01673 6.72049 2.1952C6.63481 2.27104 6.6015 2.33797 6.63005 2.45397C6.69193 2.70829 6.73952 2.96706 6.76808 3.22584C6.7776 3.32399 6.73476 3.44446 6.66813 3.52031C6.5777 3.62293 6.44443 3.59616 6.32545 3.53369C6.06843 3.4043 5.81142 3.27492 5.54964 3.15445C5.48777 3.12768 5.38782 3.12768 5.32595 3.15445C5.06418 3.27045 4.80716 3.39984 4.55015 3.52923C4.43116 3.58723 4.29789 3.62292 4.20746 3.52477C4.14083 3.45338 4.09799 3.32846 4.10751 3.2303C4.13131 2.97599 4.18843 2.72613 4.24078 2.47182C4.26458 2.35135 4.2503 2.26658 4.14559 2.17735C3.94093 2.00781 3.75055 1.82042 3.55541 1.64641C3.46022 1.55718 3.40311 1.45902 3.4507 1.3341C3.4983 1.20917 3.60301 1.16455 3.74103 1.14671C4.02184 1.11101 4.30741 1.07532 4.58346 1.02624C4.65486 1.01286 4.74053 0.954855 4.77384 0.892392C4.90711 0.664848 5.0261 0.423918 5.14509 0.191912C5.2022 0.0759094 5.29263 6.13602e-05 5.43066 6.13843e-05C5.56868 6.14085e-05 5.65912 0.0714479 5.72099 0.187451C5.83998 0.423919 5.97324 0.655925 6.08747 0.892393C6.13031 0.986087 6.19218 1.02178 6.29689 1.03517C6.58722 1.07086 6.87279 1.11101 7.15836 1.15563C7.34398 1.18686 7.43917 1.28502 7.43441 1.48133Z" fill="#FCC730"/>
<path d="M9.36896 5.28266C9.35468 5.31389 9.33088 5.38528 9.29281 5.44328C9.17858 5.61728 9.05959 5.79575 8.93108 5.96083C8.86445 6.05006 8.86445 6.12145 8.91204 6.2196C9.00723 6.41146 9.08815 6.60777 9.17382 6.80408C9.22617 6.91562 9.23569 7.04055 9.13098 7.11194C9.04531 7.16548 8.91204 7.19671 8.81209 7.18332C8.58364 7.14763 8.3647 7.07178 8.141 7.02716C8.06961 7.01378 7.9649 7.03609 7.90779 7.07624C7.72692 7.20117 7.56034 7.34394 7.389 7.48671C7.28905 7.56702 7.18434 7.62056 7.05107 7.56256C6.91305 7.50456 6.87497 7.39302 6.86545 7.26363C6.85594 7.0584 6.8369 6.85316 6.83214 6.64792C6.83214 6.54531 6.7893 6.4873 6.69411 6.43823C6.50373 6.33561 6.31811 6.22407 6.13249 6.11699C6.01826 6.05452 5.93259 5.96975 5.94687 5.8359C5.95639 5.69759 6.0611 5.6262 6.19436 5.58159C6.40378 5.5102 6.61796 5.43881 6.82262 5.34958C6.88449 5.32281 6.94637 5.25143 6.97016 5.18896C7.0368 4.9748 7.07011 4.75172 7.15103 4.54648C7.18434 4.45725 7.28429 4.35017 7.37472 4.32786C7.45563 4.31002 7.59366 4.37248 7.66029 4.43494C7.81736 4.58664 7.95538 4.75618 8.08865 4.92572C8.1648 5.02388 8.25047 5.05065 8.37422 5.03727C8.59316 5.0105 8.8121 4.99711 9.03103 4.98373C9.23093 4.97034 9.3642 5.07742 9.36896 5.28266Z" fill="#FCC730"/>
</svg>
