<svg width="16" height="16" viewBox="0 0 16 16" fill="none" xmlns="http://www.w3.org/2000/svg">
<path d="M16 7.87505C16 7.95852 16 8.04198 16 8.12545C15.8792 8.24648 15.7709 8.38837 15.6293 8.48853C15.221 8.77649 14.8045 9.04775 14.3879 9.32736C14.088 9.52768 14.038 9.72383 14.1963 10.0452C14.4379 10.5376 14.6878 11.0301 14.9294 11.5267C15.0961 11.8689 14.9128 12.1944 14.5337 12.2236C13.9755 12.2696 13.4132 12.3071 12.8508 12.3447C12.5176 12.3655 12.3634 12.5241 12.3426 12.8538C12.3093 13.388 12.276 13.9222 12.2426 14.4605C12.2135 14.9113 11.8927 15.1032 11.4845 14.9029C10.9971 14.665 10.5139 14.4272 10.0266 14.1893C9.7183 14.039 9.52252 14.0933 9.33507 14.3771C9.03515 14.8278 8.73522 15.2785 8.4353 15.7251C8.1937 16.0881 7.8188 16.0923 7.57719 15.7334C7.27311 15.2869 6.97318 14.8361 6.6691 14.3896C6.46915 14.0891 6.27337 14.039 5.95262 14.1976C5.46941 14.4355 4.9862 14.6776 4.49883 14.9154C4.12809 15.0949 3.80734 14.9238 3.77402 14.519C3.7282 13.9639 3.69487 13.4089 3.65738 12.8538C3.63655 12.5241 3.47826 12.3655 3.14501 12.3447C2.61182 12.3113 2.07446 12.2779 1.54127 12.2445C1.09138 12.2153 0.899766 11.894 1.09971 11.485C1.33715 10.9925 1.57876 10.5042 1.8162 10.0118C1.95782 9.72383 1.89951 9.51933 1.63291 9.34405C1.20385 9.0561 0.770634 8.78066 0.34991 8.48435C0.216611 8.38836 0.116637 8.24647 2.06525e-06 8.12545C2.08714e-06 8.04198 2.10903e-06 7.95851 2.13092e-06 7.87505C0.120803 7.75402 0.229109 7.61213 0.366574 7.51197C0.774801 7.22401 1.19136 6.95274 1.60792 6.67313C1.90784 6.47281 1.95783 6.28084 1.79953 5.95532C1.5621 5.47539 1.32466 4.99546 1.08722 4.51553C0.895602 4.12741 1.06223 3.80606 1.49128 3.77268C2.04114 3.72677 2.59099 3.69338 3.14085 3.65582C3.4741 3.63496 3.62822 3.47637 3.64905 3.14668C3.68238 2.60832 3.7157 2.06579 3.74903 1.52743C3.77819 1.09341 4.1031 0.905606 4.4905 1.09341C4.98204 1.33128 5.46941 1.57334 5.96095 1.81122C6.26504 1.95728 6.46499 1.9072 6.65244 1.62342C6.9357 1.20609 7.20646 0.780408 7.49805 0.367249C7.59802 0.229529 7.73965 0.121024 7.86462 -2.13365e-06C7.94793 -2.1118e-06 8.03125 -2.08995e-06 8.11456 -2.0681e-06C8.23536 0.116851 8.37699 0.21701 8.46863 0.35473C8.76022 0.767888 9.03515 1.18939 9.31424 1.6109C9.51836 1.91138 9.70581 1.96146 10.0307 1.80287C10.5264 1.56082 11.018 1.31042 11.5137 1.07254C11.8553 0.905608 12.1802 1.08923 12.2135 1.46901C12.2593 2.02823 12.2968 2.59163 12.3343 3.15085C12.3551 3.48472 12.5134 3.63913 12.8425 3.66C13.384 3.69339 13.9214 3.72677 14.4629 3.76016C14.8961 3.78937 15.0836 4.11489 14.8961 4.50301C14.6587 4.99129 14.4212 5.47539 14.1838 5.9595C14.0255 6.28084 14.0797 6.47699 14.3796 6.67731C14.8045 6.96109 15.2335 7.23653 15.6501 7.52866C15.7917 7.6163 15.8875 7.7582 16 7.87505Z" fill="#F1BF2E"/>
</svg>
