<svg width="266" height="160" viewBox="0 0 266 160" fill="none" xmlns="http://www.w3.org/2000/svg">
<path d="M1 159H265" stroke="#0A0A0A" stroke-miterlimit="10" stroke-linecap="round" stroke-linejoin="round"/>
<path d="M218.452 1.00024H132.145V79.6603H218.452V1.00024Z" fill="#FCC730"/>
<path opacity="0.37" d="M218.452 1.00024H132.145V79.6603H218.452V1.00024Z" fill="#0A0A0A"/>
<path d="M218.452 1.00024H132.145V79.6603H218.452V1.00024Z" stroke="#0A0A0A" stroke-miterlimit="10" stroke-linecap="round" stroke-linejoin="round"/>
<path d="M193.66 1.00049H132.145V79.6605H193.66V1.00049Z" fill="#FCC730" stroke="#0A0A0A" stroke-miterlimit="10" stroke-linecap="round" stroke-linejoin="round"/>
<path d="M169.122 1.00024H155.922V23.0013H169.122V1.00024Z" fill="#FBF9F9" stroke="#0A0A0A" stroke-miterlimit="10" stroke-linecap="round" stroke-linejoin="round"/>
<path d="M153.386 65.4744H138.07V73.2894H153.386V65.4744Z" fill="#FBF9F9"/>
<path d="M185.606 29.2658L169.836 25.3483L167.499 34.8308L183.269 38.7484L185.606 29.2658Z" fill="#FBF9F9"/>
<path d="M178.683 80.0005H92.375V158.661H178.683V80.0005Z" fill="#FCC730"/>
<path opacity="0.37" d="M178.683 80.0005H92.375V158.661H178.683V80.0005Z" fill="#0A0A0A"/>
<path d="M178.683 80.0005H92.375V158.661H178.683V80.0005Z" stroke="#0A0A0A" stroke-miterlimit="10" stroke-linecap="round" stroke-linejoin="round"/>
<path d="M153.89 80.0004H92.375V158.66H153.89V80.0004Z" fill="#FCC730" stroke="#0A0A0A" stroke-miterlimit="10" stroke-linecap="round" stroke-linejoin="round"/>
<path d="M129.352 80.0004H116.152V102.001H129.352V80.0004Z" fill="#FBF9F9" stroke="#0A0A0A" stroke-miterlimit="10" stroke-linecap="round" stroke-linejoin="round"/>
<path d="M148.058 108.372H132.742V116.187H148.058V108.372Z" fill="#FBF9F9"/>
<path d="M113.95 102.91L98.1797 98.9927L95.8424 108.475L111.612 112.393L113.95 102.91Z" fill="#FBF9F9"/>
<path d="M242.987 80.0005H156.68V158.661H242.987V80.0005Z" fill="#FCC730"/>
<path opacity="0.37" d="M242.987 80.0005H156.68V158.661H242.987V80.0005Z" fill="#0A0A0A"/>
<path d="M242.987 80.0005H156.68V158.661H242.987V80.0005Z" stroke="#0A0A0A" stroke-miterlimit="10" stroke-linecap="round" stroke-linejoin="round"/>
<path d="M218.195 80.0004H156.68V158.66H218.195V80.0004Z" fill="#FCC730" stroke="#0A0A0A" stroke-miterlimit="10" stroke-linecap="round" stroke-linejoin="round"/>
<path d="M193.657 80.0004H180.457V102.001H193.657V80.0004Z" fill="#FBF9F9" stroke="#0A0A0A" stroke-miterlimit="10" stroke-linecap="round" stroke-linejoin="round"/>
<path d="M212.354 108.372H197.039V116.187H212.354V108.372Z" fill="#FBF9F9"/>
<path d="M178.247 102.912L162.477 98.9946L160.139 108.477L175.909 112.395L178.247 102.912Z" fill="#FBF9F9"/>
</svg>
