<svg width="234" height="186" viewBox="0 0 234 186" fill="none" xmlns="http://www.w3.org/2000/svg">
<path d="M89.9884 84.6433C89.3354 84.933 88.6434 85.1218 87.9352 85.2035L80.5636 86.0397C78.7165 86.2416 76.8657 85.6934 75.4162 84.515C73.9667 83.3365 73.0365 81.6239 72.8292 79.7517L71.4027 66.5318C71.2178 64.7791 71.6802 63.0191 72.7006 61.592C73.7211 60.1649 75.227 59.1722 76.9273 58.8056C77.1532 58.7565 77.3817 58.7202 77.6116 58.6969L85.0327 57.8607C86.2913 57.7219 87.5634 57.9359 88.7103 58.4795" fill="#f5643e"/>
<path d="M89.9884 84.6433C89.3354 84.933 88.6434 85.1218 87.9352 85.2035L80.5636 86.0397C78.7165 86.2416 76.8657 85.6934 75.4162 84.515C73.9667 83.3365 73.0365 81.6239 72.8292 79.7517L71.4027 66.5318C71.2178 64.7791 71.6802 63.0191 72.7006 61.592C73.7211 60.1649 75.227 59.1722 76.9273 58.8056C77.1532 58.7565 77.3817 58.7202 77.6116 58.6969L85.0327 57.8607C86.2913 57.7219 87.5634 57.9359 88.7103 58.4795" stroke="#0A0A0A" stroke-width="3.35155" stroke-miterlimit="10"/>
<path d="M127.803 177.579C130.295 177.158 122.818 140.97 122.818 140.97H111.187C111.187 140.97 104.542 175.896 107.034 177.158C109.525 178.421 125.311 178 127.803 177.579Z" fill="#f5643e" stroke="black" stroke-width="3.35155"/>
<path d="M144.458 83.7989L144.574 83.8909C145.544 84.6087 146.68 85.0608 147.872 85.2037L152.985 85.7723L155.244 86.0147C157.091 86.2167 158.942 85.6685 160.391 84.49C161.841 83.3116 162.771 81.5989 162.978 79.7267L164.421 66.532C164.62 64.6598 164.079 62.7839 162.917 61.3154C161.755 59.8468 160.066 58.9053 158.221 58.6971L157.767 58.6469L150.849 57.8776C149.93 57.7764 149.001 57.861 148.115 58.1266C147.229 58.3921 146.404 58.8333 145.687 59.4245" fill="#f5643e"/>
<path d="M144.458 83.7989L144.574 83.8909C145.544 84.6087 146.68 85.0608 147.872 85.2037L152.985 85.7723L155.244 86.0147C157.091 86.2167 158.942 85.6685 160.391 84.49C161.841 83.3116 162.771 81.5989 162.978 79.7267L164.421 66.532C164.62 64.6598 164.079 62.7839 162.917 61.3154C161.755 59.8468 160.066 58.9053 158.221 58.6971L157.767 58.6469L150.849 57.8776C149.93 57.7764 149.001 57.861 148.115 58.1266C147.229 58.3921 146.404 58.8333 145.687 59.4245" stroke="#0A0A0A" stroke-width="3.35155" stroke-miterlimit="10"/>
<path d="M126.623 92.3777H146.042C147.813 92.3739 149.517 91.6908 150.813 90.4656C152.108 89.2404 152.899 87.5637 153.026 85.772" stroke="#0A0A0A" stroke-width="3.35155" stroke-miterlimit="10"/>
<path d="M157.819 58.6636C158.031 56.9663 158.138 55.2572 158.141 53.5463V50.0845C158.108 39.3229 153.875 29.0122 146.368 21.4065C138.86 13.8008 128.688 9.51888 118.076 9.49683H116.592C105.99 9.53212 95.8314 13.8202 88.3358 21.4247C80.8401 29.0292 76.6159 39.3324 76.5854 50.0845V53.5379C76.5894 55.3049 76.7023 57.0698 76.9235 58.8225" stroke="#0A0A0A" stroke-width="3.35155" stroke-miterlimit="10"/>
<path d="M121.053 84.4595H115.726C112.47 84.4595 109.831 87.1343 109.831 90.4339C109.831 93.7335 112.47 96.4083 115.726 96.4083H121.053C124.309 96.4083 126.949 93.7335 126.949 90.4339C126.949 87.1343 124.309 84.4595 121.053 84.4595Z" fill="#f5643e" stroke="#0A0A0A" stroke-width="3.35155" stroke-miterlimit="10"/>
<path d="M83.6145 58.0447C82.7492 55.8483 82.3097 53.5032 82.32 51.138C82.32 44.4486 85.6182 38.8881 90.1449 37.2157L90.2109 36.4297C90.4826 32.1224 92.4223 28.0987 95.6071 25.2355C98.7918 22.3723 102.964 20.9018 107.213 21.1446L123.687 22.2149C130.886 22.6882 137.608 26.0321 142.384 31.5158C147.16 36.9996 149.601 44.1775 149.174 51.4808L148.753 57.9778" stroke="#0A0A0A" stroke-width="3.35155" stroke-miterlimit="10"/>
<path d="M146.655 69.2076C146.655 69.7009 146.655 70.1859 146.655 70.6792C146.54 75.1343 145.807 79.5507 144.478 83.7987C141.667 92.7457 136.348 100.004 129.637 104.093C128.73 104.646 127.791 105.143 126.825 105.581C123.713 107.011 120.331 107.739 116.914 107.713C113.497 107.687 110.127 106.908 107.036 105.43V105.43C106.492 105.171 105.956 104.904 105.387 104.594C105.09 104.435 104.802 104.26 104.505 104.084C100.944 101.844 97.86 98.9041 95.4348 95.4382C93.0949 92.1342 91.2577 88.4924 89.9846 84.6349C88.3299 79.6623 87.4941 74.4473 87.511 69.1992C87.5106 67.3863 87.6069 65.5748 87.7996 63.7724C87.8744 63.1146 87.9845 62.4615 88.1294 61.8158C88.2387 61.2562 88.4131 60.7116 88.6489 60.1936C94.1238 48.0608 98.6835 41.6641 104.975 46.8149C113.657 53.914 133.71 34.5149 140.785 46.1878C142.08 48.1447 143.119 50.264 143.877 52.4925C144.638 54.7615 145.247 57.0802 145.699 59.4327C146.34 62.6503 146.66 65.925 146.655 69.2076V69.2076Z" stroke="#0A0A0A" stroke-width="3.35155" stroke-miterlimit="10"/>
<path d="M129.638 104.093L135.088 111.401L135.781 112.329L148.066 119.695L163.733 129.044C165.864 130.41 167.623 132.297 168.848 134.533C170.072 136.768 170.724 139.28 170.741 141.837L170.997 156.846C170.997 160.76 167.171 162.7 163.856 165.15C154.448 172.148 141.157 176.563 126.686 177.692C120.252 178.207 113.784 178.075 107.375 177.299C94.7472 175.885 82.5675 171.73 71.6644 165.116C66.478 161.897 64.5156 160.726 64.5156 156.813L64.7712 141.804C64.7889 139.247 65.4399 136.735 66.6645 134.499C67.8892 132.264 69.6481 130.377 71.7798 129.01L86.4401 120.231L99.6905 112.295L100.391 111.367L105.454 104.569" stroke="#0A0A0A" stroke-width="3.35155" stroke-miterlimit="10"/>
<path d="M111.183 124.98C111.171 125.209 108.013 129.702 108.026 129.931V133.802C108.02 135.097 108.363 136.369 109.016 137.481C109.67 138.594 110.611 139.504 111.736 140.115C112.749 140.671 113.883 140.958 115.035 140.951H118.844C119.996 140.959 121.13 140.672 122.143 140.115C123.272 139.513 124.218 138.61 124.879 137.504C125.54 136.397 125.891 135.129 125.894 133.835V129.964C125.892 129.614 122.867 125.326 122.814 124.98" fill="#f5643e"/>
<path d="M111.183 124.98C111.171 125.209 108.013 129.702 108.026 129.931V133.802C108.02 135.097 108.363 136.369 109.016 137.481C109.67 138.594 110.611 139.504 111.736 140.115C112.749 140.671 113.883 140.958 115.035 140.951H118.844C119.996 140.959 121.13 140.672 122.143 140.115C123.272 139.513 124.218 138.61 124.879 137.504C125.54 136.397 125.891 135.129 125.894 133.835V129.964C125.892 129.614 122.867 125.326 122.814 124.98" stroke="#0A0A0A" stroke-width="3.35155" stroke-miterlimit="10"/>
<path d="M135.088 111.401L130.693 118.174C128.875 121.01 126.194 123.167 123.058 124.319L122.794 124.411C119.107 125.686 115.085 125.528 111.506 123.968L111.35 123.901C108.651 122.679 106.36 120.689 104.753 118.174L100.358 111.401" stroke="#0A0A0A" stroke-width="3.35155" stroke-miterlimit="10"/>
<path d="M111.509 123.969L108.03 129.278L101.4 139.379L86.4014 120.264" stroke="#0A0A0A" stroke-width="3.35155" stroke-miterlimit="10"/>
<path d="M148.068 119.696L132.616 139.379L125.747 128.919V128.91L122.795 124.412" stroke="#0A0A0A" stroke-width="3.35155" stroke-miterlimit="10"/>
</svg>
