<svg width="82" height="82" viewBox="0 0 82 82" fill="none" xmlns="http://www.w3.org/2000/svg">
<path d="M79.276 17.1726V66.5824C79.276 67.9204 78.3219 69.0001 77.1583 69.0001H16.8379C15.6744 69.0001 14.7202 67.9204 14.7202 66.5824V17.1726" fill="#f68132"/>
<path d="M79.276 17.1726V66.5824C79.276 67.9204 78.3219 69.0001 77.1583 69.0001H16.8379C15.6744 69.0001 14.7202 67.9204 14.7202 66.5824V17.1726" stroke="#0A0A0A" stroke-width="2" stroke-miterlimit="10"/>
<path d="M60.0789 32.6876H33.2466C31.9201 32.6876 30.8496 31.6079 30.8496 30.2699V26.5378C30.8496 25.1999 31.9201 24.1201 33.2466 24.1201H60.0789C61.4054 24.1201 62.4759 25.1999 62.4759 26.5378V30.2699C62.4759 31.6079 61.3821 32.6876 60.0789 32.6876Z" fill="#0A0A0A"/>
<path d="M78.603 17.243H15.397C14.0705 17.243 13 16.1633 13 14.8254V3.41768C13 2.07974 14.0705 1 15.397 1H78.603C79.9295 1 81 2.07974 81 3.41768V14.8254C81 16.1633 79.9062 17.243 78.603 17.243Z" fill="#f68132" stroke="#0A0A0A" stroke-width="2" stroke-miterlimit="10"/>
<path d="M9.35547 56.2876L19.9497 48.4665C19.9497 48.4665 29.5008 43.3684 33.9185 41.3824C38.3361 39.3964 41.3835 45.682 38.0907 47.9341C34.9615 50.0635 28.2737 53.2984 28.2737 53.2984C28.2737 53.2984 46.8238 53.4826 51.5482 53.4826C56.2726 53.4826 56.9476 60.4234 51.5482 60.3005C47.3964 60.1982 40.545 60.3005 40.545 60.3005C40.545 60.3005 54.2888 60.3005 58.6246 60.3005C62.9605 60.3005 63.2877 67.1184 58.6246 67.1184C53.9616 67.1184 40.3609 67.1184 40.3609 67.1184C40.3609 67.1184 50.996 67.1184 55.2705 67.1184C59.545 67.1184 59.095 74.4072 55.2705 74.4072C51.4459 74.4072 40.095 74.4072 40.095 74.4072C40.095 74.4072 45.9034 74.4072 50.6483 74.4072C55.3932 74.4072 55.0455 80.9999 50.6483 80.9999C46.2511 80.9999 18.6407 80.9999 18.6407 80.9999L9.35547 77.2122V56.2876Z" fill="#F0F0F0" stroke="#0A0A0A" stroke-width="2" stroke-miterlimit="10"/>
<path d="M7.17143 81.0001H2.82857C1.82286 81.0001 1 79.89 1 78.5333V54.749C1 53.3923 1.82286 52.2822 2.82857 52.2822H7.17143C8.17714 52.2822 9 53.3923 9 54.749V78.5333C9 79.89 8.17714 81.0001 7.17143 81.0001Z" fill="#F0F0F0" stroke="#0A0A0A" stroke-width="2" stroke-miterlimit="10"/>
</svg>
