<svg width="152" height="103" viewBox="0 0 152 103" fill="none" xmlns="http://www.w3.org/2000/svg">
<path d="M6.6234 0.504395V28.7321H19.8267V33.7649H1V0.504395H6.6234Z" fill="#FCC730"/>
<path d="M26.4606 16.4273C27.4942 14.7169 28.897 13.3757 30.6935 12.4159C32.4777 11.4438 34.4835 10.9639 36.7107 10.9639C38.9625 10.9639 40.9682 11.4438 42.7524 12.4159C44.5244 13.388 45.9271 14.7169 46.9608 16.4273C47.9944 18.1377 48.5112 20.1188 48.5112 22.3706C48.5112 24.5855 47.9944 26.5666 46.9608 28.2894C45.9271 30.0121 44.5244 31.3656 42.7524 32.3254C40.9805 33.2975 38.9625 33.7774 36.7107 33.7774C34.4958 33.7774 32.4901 33.2975 30.6935 32.3254C28.897 31.3533 27.4942 30.0121 26.4606 28.2894C25.427 26.5666 24.9102 24.5855 24.9102 22.3706C24.9225 20.1188 25.427 18.1377 26.4606 16.4273ZM31.0504 25.9637C31.6164 26.9973 32.3916 27.7971 33.376 28.3878C34.3604 28.9784 35.4679 29.2614 36.6984 29.2614C37.9289 29.2614 39.0486 28.9661 40.0207 28.3878C41.0051 27.7971 41.7803 26.9973 42.3464 25.9637C42.9124 24.9301 43.2077 23.7365 43.2077 22.3706C43.2077 21.0048 42.9247 19.7989 42.3464 18.753C41.7803 17.707 41.0051 16.8949 40.0207 16.3289C39.0363 15.7628 37.9289 15.4675 36.6984 15.4675C35.4679 15.4675 34.3481 15.7505 33.376 16.3289C32.3916 16.8949 31.6164 17.707 31.0504 18.753C30.4843 19.7989 30.189 21.0048 30.189 22.3706C30.189 23.7365 30.4843 24.9301 31.0504 25.9637Z" fill="#FCC730"/>
<path d="M55.043 16.2427C56.0274 14.5815 57.3317 13.3018 58.9683 12.4159C60.6049 11.5299 62.3522 11.0869 64.2226 11.0869C66.056 11.0869 67.668 11.5422 69.0461 12.4405C70.4243 13.3387 71.5194 14.6308 72.3193 16.2919C73.1314 17.9531 73.5375 19.9711 73.5375 22.346C73.5375 24.6963 73.1314 26.7143 72.3193 28.4001C71.5071 30.0982 70.4243 31.3902 69.0461 32.3008C67.668 33.1991 66.056 33.6543 64.2226 33.6543C62.3522 33.6543 60.6049 33.2114 58.9683 32.3254C57.3317 31.4394 56.0274 30.1597 55.043 28.4739C54.0586 26.8004 53.5664 24.7455 53.5664 22.346C53.5787 19.9342 54.0709 17.9039 55.043 16.2427ZM59.1406 34.8971C59.1775 35.8815 59.4359 36.7552 59.9527 37.5304C60.4572 38.3056 61.1709 38.9209 62.0938 39.3885C63.0167 39.8438 64.0872 40.0776 65.33 40.0776C66.3759 40.0776 67.385 39.8192 68.3694 39.3147C69.3538 38.8101 70.1536 38.0349 70.7688 36.989C71.3841 35.9431 71.6917 34.6018 71.6917 32.9529V11.5545H76.7245V32.9406C76.7245 35.5739 76.1954 37.7396 75.1371 39.45C74.0789 41.1604 72.6884 42.4401 70.978 43.2769C69.2676 44.1136 67.4096 44.532 65.4161 44.532C63.0659 44.532 61.0602 44.1259 59.3744 43.3138C57.7009 42.5017 56.3966 41.3696 55.4737 39.9176C54.5508 38.4656 54.0586 36.7798 53.9971 34.8848H59.1406V34.8971ZM59.8051 26.0744C60.408 27.1081 61.2078 27.8833 62.2045 28.4001C63.2012 28.9169 64.2841 29.1876 65.4654 29.1876C66.4744 29.1876 67.4588 28.9292 68.4063 28.4001C69.3538 27.8833 70.1413 27.1081 70.7565 26.099C71.3718 25.09 71.6794 23.8349 71.6794 22.346C71.6794 21.2386 71.4948 20.2665 71.138 19.4174C70.7688 18.5807 70.2889 17.867 69.686 17.2763C69.083 16.6857 68.4186 16.255 67.6926 15.972C66.9666 15.689 66.216 15.5413 65.4531 15.5413C64.2841 15.5413 63.2012 15.7997 62.1922 16.3289C61.1955 16.8457 60.3957 17.6209 59.7927 18.6299C59.1898 19.6389 58.8945 20.8817 58.8945 22.3337C58.8945 23.798 59.2021 25.0531 59.8051 26.0744Z" fill="#FCC730"/>
<path d="M82.0658 0.898267C82.718 0.295321 83.4686 0 84.3177 0C85.2405 0 86.0158 0.295321 86.6433 0.898267C87.2709 1.50121 87.5908 2.23952 87.5908 3.13778C87.5908 3.99914 87.2709 4.72513 86.6433 5.35269C86.0035 5.96794 85.2282 6.27557 84.3177 6.27557C83.4563 6.27557 82.7057 5.96794 82.0658 5.35269C81.4137 4.73744 81.0938 3.99914 81.0938 3.13778C81.0938 2.23952 81.4137 1.50121 82.0658 0.898267ZM86.8894 11.8251V33.6912H81.8074V11.8251H86.8894Z" fill="#FCC730"/>
<path d="M88.4194 65.635C89.1454 64.9582 89.9821 64.626 90.9419 64.626C91.9755 64.626 92.8369 64.9582 93.5506 65.635C94.2643 66.3118 94.6088 67.1485 94.6088 68.1329C94.6088 69.0927 94.252 69.9171 93.5506 70.6062C92.8369 71.2953 91.9755 71.6398 90.9419 71.6398C89.9821 71.6398 89.1454 71.2953 88.4194 70.6062C87.6934 69.9171 87.3242 69.0927 87.3242 68.1329C87.3242 67.1485 87.6811 66.3118 88.4194 65.635ZM93.809 77.8662V102.329H88.124V77.8662H93.809Z" fill="#FCC730"/>
<path d="M98.1582 25.8897C98.7611 26.9356 99.5733 27.76 100.607 28.363C101.641 28.9659 102.785 29.2613 104.052 29.2613C105.135 29.2613 106.132 29.089 107.067 28.7567C108.002 28.4245 108.827 27.9815 109.565 27.4278C110.291 26.8741 110.832 26.2465 111.177 25.5451V31.2054C110.414 31.9684 109.393 32.5713 108.088 33.0143C106.784 33.4573 105.357 33.6788 103.806 33.6788C101.591 33.6788 99.5856 33.1989 97.789 32.2268C95.9925 31.2547 94.5774 29.9134 93.5315 28.1907C92.4856 26.468 91.9688 24.4869 91.9688 22.272C91.9688 20.0202 92.4979 18.0391 93.5315 16.3287C94.5774 14.6183 95.9925 13.277 97.789 12.3172C99.5733 11.3451 101.579 10.8652 103.806 10.8652C105.357 10.8652 106.784 11.0867 108.088 11.5297C109.393 11.9727 110.414 12.5633 111.177 13.2893V18.9989C110.832 18.2729 110.279 17.633 109.54 17.0793C108.79 16.5255 107.953 16.0949 106.993 15.7749C106.046 15.455 105.061 15.295 104.052 15.295C102.785 15.295 101.641 15.5904 100.607 16.1933C99.5733 16.7963 98.7611 17.6207 98.1582 18.6666C97.5552 19.7125 97.2599 20.9184 97.2599 22.2843C97.2599 23.6502 97.5552 24.8437 98.1582 25.8897Z" fill="#FCC730"/>
<path d="M82.2154 60.627V102.39H76.3828V60.627H82.2154Z" fill="#FCC730"/>
<path d="M114.404 83.2683C113.653 82.3455 112.509 81.8779 110.983 81.8779C109.875 81.8779 108.916 82.0994 108.091 82.5423C107.267 82.9853 106.639 83.6252 106.196 84.4742C105.753 85.311 105.532 86.2831 105.532 87.3905V102.378H99.6992V77.7557H105.532V81.5579C106.319 80.0936 107.328 79.0108 108.559 78.2971C109.789 77.5834 111.241 77.2266 112.927 77.2266C115.708 77.2266 117.837 78.0756 119.301 79.7737C120.765 81.4718 121.491 83.7851 121.491 86.7014V102.39H115.548V87.3905C115.523 85.5817 115.154 84.2035 114.404 83.2683Z" fill="#FCC730"/>
<path d="M132.981 60.627V102.39H127.309V60.627H132.981ZM149.15 77.7555L138.494 87.9318L150.221 102.39H143.157L131.431 87.9318L142.038 77.7555H149.15Z" fill="#FCC730"/>
<path d="M70.3274 75.2942H16.1976C9.62671 75.2942 4.26172 70.163 4.26172 63.8998C4.26172 60.762 5.60297 57.9195 7.76865 55.8523C9.93434 53.785 12.9245 52.5053 16.2345 52.5053H71.361H136.122C139.408 52.5053 142.386 51.2256 144.551 49.1584C146.717 47.0911 148.058 44.2363 148.058 41.0986C148.058 34.823 142.693 29.7041 136.122 29.7041H116.274" stroke="#FBF9F9" stroke-width="6.76427" stroke-miterlimit="10"/>
<path d="M70.3274 75.2942H16.1976C9.62671 75.2942 4.26172 70.163 4.26172 63.8998C4.26172 60.762 5.60297 57.9195 7.76865 55.8523C9.93434 53.785 12.9245 52.5053 16.2345 52.5053H71.361H136.122C139.408 52.5053 142.386 51.2256 144.551 49.1584C146.717 47.0911 148.058 44.2363 148.058 41.0986C148.058 34.823 142.693 29.7041 136.122 29.7041H116.274" stroke="#0A0A0A" stroke-width="0.966326" stroke-miterlimit="10" stroke-dasharray="5.8 5.8"/>
</svg>
