<svg width="234" height="186" viewBox="0 0 234 186" fill="none" xmlns="http://www.w3.org/2000/svg">
<path d="M189.091 83.6968H44.9157C42.1159 83.6968 39.8462 85.9757 39.8462 88.7868V172.91C39.8462 175.721 42.1159 178 44.9157 178H189.091C191.891 178 194.161 175.721 194.161 172.91V88.7868C194.161 85.9757 191.891 83.6968 189.091 83.6968Z" fill="#f5643e" stroke="#0A0A0A" stroke-width="3.35155" stroke-miterlimit="10"/>
<path d="M148.613 94.8743H83.7873C80.8219 94.8743 78.418 97.2879 78.418 100.265V107.431C78.418 110.408 80.8219 112.822 83.7873 112.822H148.613C151.578 112.822 153.982 110.408 153.982 107.431V100.265C153.982 97.2879 151.578 94.8743 148.613 94.8743Z" fill="#0A0A0A"/>
<path d="M194.724 37.2975L45.5724 9.00094C42.6585 8.44814 39.8501 10.3717 39.2995 13.2973L34.997 36.1597C34.4464 39.0854 36.3622 41.9052 39.2761 42.458L188.428 70.7546C191.342 71.3074 194.15 69.3838 194.701 66.4582L199.003 43.5958C199.554 40.6702 197.638 37.8504 194.724 37.2975Z" fill="#f5643e" stroke="#0A0A0A" stroke-width="3.35155" stroke-miterlimit="10"/>
<path d="M127.722 83.6968V74.0244C127.722 72.5946 127.157 71.2233 126.15 70.2123C125.143 69.2013 123.777 68.6333 122.353 68.6333H77.6086C76.1846 68.6333 74.8188 69.2013 73.8119 70.2123C72.805 71.2233 72.2393 72.5946 72.2393 74.0244V83.6968" stroke="#0A0A0A" stroke-width="3.35155" stroke-miterlimit="10"/>
<path d="M98.5664 68.6332V53.7" stroke="#0A0A0A" stroke-width="3.35155" stroke-miterlimit="10"/>
<path d="M64.3692 51.3098V63.8351C64.3692 65.2649 63.8035 66.6361 62.7965 67.6471C61.7896 68.6581 60.4239 69.2261 58.9999 69.2261H46.1582" stroke="#0A0A0A" stroke-width="3.35155" stroke-miterlimit="10"/>
<path d="M85.9986 51.3098H64.3692L46.1582 67.5324V69.2261V83.6966" stroke="#0A0A0A" stroke-width="3.35155" stroke-miterlimit="10"/>
<path d="M187.665 83.6967V79.0874C187.665 77.6576 187.1 76.2863 186.093 75.2753C185.086 74.2643 183.72 73.6963 182.296 73.6963H140.03C138.606 73.6963 137.241 74.2643 136.234 75.2753C135.227 76.2863 134.661 77.6576 134.661 79.0874V83.6967" stroke="#0A0A0A" stroke-width="3.35155" stroke-miterlimit="10"/>
</svg>
