<svg width="80" height="82" viewBox="0 0 80 82" fill="none" xmlns="http://www.w3.org/2000/svg">
<path d="M69.7863 49.8477V70.2108C69.7976 70.4593 69.7124 70.7025 69.5488 70.889C69.3851 71.0755 69.1559 71.1907 68.9093 71.2104H43.9829C43.7364 71.1907 43.5071 71.0755 43.3435 70.889C43.1799 70.7025 43.0947 70.4593 43.106 70.2108V49.8477" stroke="#0A0A0A" stroke-width="2" stroke-miterlimit="10"/>
<path d="M61.8531 52.7122H50.7673C50.2211 52.7122 49.7783 53.1575 49.7783 53.7069V55.2459C49.7783 55.7953 50.2211 56.2407 50.7673 56.2407H61.8531C62.3993 56.2407 62.842 55.7953 62.842 55.2459V53.7069C62.842 53.1575 62.3993 52.7122 61.8531 52.7122Z" stroke="#0A0A0A" stroke-width="2" stroke-miterlimit="10"/>
<path d="M69.5086 43.1816H43.3859C42.8397 43.1816 42.397 43.627 42.397 44.1764V48.8819C42.397 49.4313 42.8397 49.8767 43.3859 49.8767H69.5086C70.0548 49.8767 70.4976 49.4313 70.4976 48.8819V44.1764C70.4976 43.627 70.0548 43.1816 69.5086 43.1816Z" stroke="#0A0A0A" stroke-width="2" stroke-miterlimit="10"/>
<path d="M68.1042 9.76611V30.1412C68.1155 30.3893 68.0306 30.6322 67.8675 30.8186C67.7044 31.0051 67.4757 31.1206 67.2296 31.1408H42.3008C42.0543 31.1212 41.825 31.0059 41.6614 30.8194C41.4977 30.6329 41.4126 30.3897 41.4238 30.1412V9.76611" fill="#f68132"/>
<path d="M68.1042 9.76611V30.1412C68.1155 30.3893 68.0306 30.6322 67.8675 30.8186C67.7044 31.0051 67.4757 31.1206 67.2296 31.1408H42.3008C42.0543 31.1212 41.825 31.0059 41.6614 30.8194C41.4977 30.6329 41.4126 30.3897 41.4238 30.1412V9.76611" stroke="#0A0A0A" stroke-width="2" stroke-miterlimit="10"/>
<path d="M60.169 12.6306H49.0832C48.537 12.6306 48.0942 13.076 48.0942 13.6254V15.1643C48.0942 15.7137 48.537 16.1591 49.0832 16.1591H60.169C60.7152 16.1591 61.158 15.7137 61.158 15.1643V13.6254C61.158 13.076 60.7152 12.6306 60.169 12.6306Z" fill="#0A0A0A"/>
<path d="M67.8236 3.10229H41.7009C41.1547 3.10229 40.7119 3.54768 40.7119 4.09708V8.80254C40.7119 9.35194 41.1547 9.79732 41.7009 9.79732H67.8236C68.3697 9.79732 68.8125 9.35194 68.8125 8.80254V4.09708C68.8125 3.54768 68.3697 3.10229 67.8236 3.10229Z" fill="#f68132" stroke="#0A0A0A" stroke-width="2" stroke-miterlimit="10"/>
<path d="M37.5856 49.8477V70.2108C37.5969 70.4593 37.5117 70.7025 37.3481 70.889C37.1845 71.0755 36.9552 71.1907 36.7087 71.2104H11.7822C11.5357 71.1907 11.3064 71.0755 11.1428 70.889C10.9792 70.7025 10.894 70.4593 10.9053 70.2108V49.8477" stroke="#0A0A0A" stroke-width="2" stroke-miterlimit="10"/>
<path d="M29.6514 52.7122H18.5656C18.0194 52.7122 17.5767 53.1575 17.5767 53.7069V55.2459C17.5767 55.7953 18.0194 56.2407 18.5656 56.2407H29.6514C30.1976 56.2407 30.6404 55.7953 30.6404 55.2459V53.7069C30.6404 53.1575 30.1976 52.7122 29.6514 52.7122Z" stroke="#0A0A0A" stroke-width="2" stroke-miterlimit="10"/>
<path d="M37.307 43.1816H11.1843C10.6381 43.1816 10.1953 43.627 10.1953 44.1764V48.8819C10.1953 49.4313 10.6381 49.8767 11.1843 49.8767H37.307C37.8531 49.8767 38.2959 49.4313 38.2959 48.8819V44.1764C38.2959 43.627 37.8531 43.1816 37.307 43.1816Z" stroke="#0A0A0A" stroke-width="2" stroke-miterlimit="10"/>
<path d="M6.59803 1H1.79562C1.35621 1 1 1.35621 1 1.79562V80.2043C1 80.6437 1.35621 80.9999 1.79562 80.9999H6.59803C7.03744 80.9999 7.39365 80.6437 7.39365 80.2043V1.79562C7.39365 1.35621 7.03744 1 6.59803 1Z" stroke="#0A0A0A" stroke-width="2" stroke-miterlimit="10"/>
<path d="M78.2045 1H73.4021C72.9627 1 72.6064 1.35621 72.6064 1.79562V80.2043C72.6064 80.6437 72.9627 80.9999 73.4021 80.9999H78.2045C78.6439 80.9999 79.0001 80.6437 79.0001 80.2043V1.79562C79.0001 1.35621 78.6439 1 78.2045 1Z" stroke="#0A0A0A" stroke-width="2" stroke-miterlimit="10"/>
<path d="M72.6064 36.4263H7.39258" stroke="#0A0A0A" stroke-width="2" stroke-miterlimit="10"/>
<path d="M72.6064 31.8264H7.39258" stroke="#0A0A0A" stroke-width="2" stroke-miterlimit="10"/>
<path d="M72.6064 76.0957H7.39258" stroke="#0A0A0A" stroke-width="2" stroke-miterlimit="10"/>
<path d="M72.6064 71.4956H7.39258" stroke="#0A0A0A" stroke-width="2" stroke-miterlimit="10"/>
</svg>
